<?xml version="1.0" encoding="UTF-8" standalone="no"?>
<!DOCTYPE svg PUBLIC "-//W3C//DTD SVG 1.1//EN"
 "http://www.w3.org/Graphics/SVG/1.1/DTD/svg11.dtd">
<!-- Generated by graphviz version 14.1.1 (20251213.1925)
 -->
<!-- Title: InheritanceTree Pages: 1 -->
<svg width="326pt" height="285pt"
 viewBox="0.00 0.00 326.00 285.00" xmlns="http://www.w3.org/2000/svg" xmlns:xlink="http://www.w3.org/1999/xlink">
<g id="graph0" class="graph" transform="scale(1 1) rotate(0) translate(4 280.5)">
<title>InheritanceTree</title>
<polygon fill="white" stroke="none" points="-4,4 -4,-280.5 321.75,-280.5 321.75,4 -4,4"/>
<text xml:space="preserve" text-anchor="middle" x="158.88" y="-7.2" font-family="Times New Roman,serif" font-size="14.00">simple_stb &#45; Inheritance Hierarchy</text>
<!-- SIMPLE_STB -->
<g id="node1" class="node">
<title>SIMPLE_STB</title>
<path fill="none" stroke="black" d="M84.25,-60.5C84.25,-60.5 12,-60.5 12,-60.5 6,-60.5 0,-54.5 0,-48.5 0,-48.5 0,-36.5 0,-36.5 0,-30.5 6,-24.5 12,-24.5 12,-24.5 84.25,-24.5 84.25,-24.5 90.25,-24.5 96.25,-30.5 96.25,-36.5 96.25,-36.5 96.25,-48.5 96.25,-48.5 96.25,-54.5 90.25,-60.5 84.25,-60.5"/>
<text xml:space="preserve" text-anchor="middle" x="48.12" y="-37.45" font-family="Times New Roman,serif" font-size="14.00">SIMPLE_STB</text>
</g>
<!-- STB_IMAGE -->
<g id="node2" class="node">
<title>STB_IMAGE</title>
<path fill="none" stroke="black" d="M82.38,-132.5C82.38,-132.5 13.88,-132.5 13.88,-132.5 7.88,-132.5 1.88,-126.5 1.88,-120.5 1.88,-120.5 1.88,-108.5 1.88,-108.5 1.88,-102.5 7.88,-96.5 13.88,-96.5 13.88,-96.5 82.38,-96.5 82.38,-96.5 88.38,-96.5 94.38,-102.5 94.38,-108.5 94.38,-108.5 94.38,-120.5 94.38,-120.5 94.38,-126.5 88.38,-132.5 82.38,-132.5"/>
<text xml:space="preserve" text-anchor="middle" x="48.12" y="-109.45" font-family="Times New Roman,serif" font-size="14.00">STB_IMAGE</text>
</g>
<!-- LIB_TESTS -->
<g id="node3" class="node">
<title>LIB_TESTS</title>
<path fill="none" stroke="black" d="M78.25,-204.5C78.25,-204.5 18,-204.5 18,-204.5 12,-204.5 6,-198.5 6,-192.5 6,-192.5 6,-180.5 6,-180.5 6,-174.5 12,-168.5 18,-168.5 18,-168.5 78.25,-168.5 78.25,-168.5 84.25,-168.5 90.25,-174.5 90.25,-180.5 90.25,-180.5 90.25,-192.5 90.25,-192.5 90.25,-198.5 84.25,-204.5 78.25,-204.5"/>
<text xml:space="preserve" text-anchor="middle" x="48.12" y="-181.45" font-family="Times New Roman,serif" font-size="14.00">LIB_TESTS</text>
</g>
<!-- EQA_TEST_SET -->
<g id="node4" class="node">
<title>EQA_TEST_SET</title>
<path fill="none" stroke="black" d="M305.75,-204.5C305.75,-204.5 216.25,-204.5 216.25,-204.5 210.25,-204.5 204.25,-198.5 204.25,-192.5 204.25,-192.5 204.25,-180.5 204.25,-180.5 204.25,-174.5 210.25,-168.5 216.25,-168.5 216.25,-168.5 305.75,-168.5 305.75,-168.5 311.75,-168.5 317.75,-174.5 317.75,-180.5 317.75,-180.5 317.75,-192.5 317.75,-192.5 317.75,-198.5 311.75,-204.5 305.75,-204.5"/>
<text xml:space="preserve" text-anchor="middle" x="261" y="-181.45" font-family="Times New Roman,serif" font-size="14.00">EQA_TEST_SET</text>
</g>
<!-- LIB_TESTS&#45;&gt;EQA_TEST_SET -->
<g id="edge1" class="edge">
<title>LIB_TESTS&#45;&gt;EQA_TEST_SET</title>
<path fill="none" stroke="black" d="M90.69,-186.5C90.69,-186.5 192.47,-186.5 192.47,-186.5"/>
<polygon fill="none" stroke="black" points="192.47,-190 202.47,-186.5 192.47,-183 192.47,-190"/>
</g>
<!-- TEST_APP -->
<g id="node5" class="node">
<title>TEST_APP</title>
<path fill="none" stroke="black" d="M76,-276.5C76,-276.5 20.25,-276.5 20.25,-276.5 14.25,-276.5 8.25,-270.5 8.25,-264.5 8.25,-264.5 8.25,-252.5 8.25,-252.5 8.25,-246.5 14.25,-240.5 20.25,-240.5 20.25,-240.5 76,-240.5 76,-240.5 82,-240.5 88,-246.5 88,-252.5 88,-252.5 88,-264.5 88,-264.5 88,-270.5 82,-276.5 76,-276.5"/>
<text xml:space="preserve" text-anchor="middle" x="48.12" y="-253.45" font-family="Times New Roman,serif" font-size="14.00">TEST_APP</text>
</g>
</g>
</svg>
