<?xml version="1.0" encoding="UTF-8" standalone="no"?>
<!DOCTYPE svg PUBLIC "-//W3C//DTD SVG 1.1//EN"
 "http://www.w3.org/Graphics/SVG/1.1/DTD/svg11.dtd">
<!-- Generated by graphviz version 14.1.1 (20251213.1925)
 -->
<!-- Title: ContractCoverage Pages: 1 -->
<svg width="816pt" height="650pt"
 viewBox="48.00 48.00 768.00 602.00" xmlns="http://www.w3.org/2000/svg" xmlns:xlink="http://www.w3.org/1999/xlink">
<g id="graph0" class="graph" transform="scale(0.675977 0.675977) rotate(0) translate(75.01 886.76)">
<title>ContractCoverage</title>
<polygon fill="white" stroke="none" points="-4,4 -4,-815.75 1061.12,-815.75 1061.12,4 -4,4"/>
<text xml:space="preserve" text-anchor="middle" x="528.56" y="-798.25" font-family="Times New Roman,serif" font-size="10.00">simple_stb &#45; Contract Coverage</text>
<g id="clust1" class="cluster">
<title>cluster_SIMPLE_STB</title>
<polygon fill="white" stroke="black" points="628.88,0 628.88,-444.5 1057.12,-444.5 1057.12,0 628.88,0"/>
<text xml:space="preserve" text-anchor="middle" x="843" y="-427.2" font-family="Times New Roman,serif" font-size="14.00">SIMPLE_STB</text>
</g>
<g id="clust2" class="cluster">
<title>cluster_STB_IMAGE</title>
<polygon fill="white" stroke="black" points="0,-37 0,-589.5 552,-589.5 552,-37 0,-37"/>
<text xml:space="preserve" text-anchor="middle" x="276" y="-572.2" font-family="Times New Roman,serif" font-size="14.00">STB_IMAGE</text>
</g>
<g id="clust3" class="cluster">
<title>cluster_LIB_TESTS</title>
<polygon fill="white" stroke="black" points="406.5,-666 406.5,-792.5 563.5,-792.5 563.5,-666 406.5,-666"/>
<text xml:space="preserve" text-anchor="middle" x="485" y="-775.2" font-family="Times New Roman,serif" font-size="14.00">LIB_TESTS</text>
</g>
<g id="clust4" class="cluster">
<title>cluster_TEST_APP</title>
<polygon fill="white" stroke="black" points="221.44,-666.5 221.44,-782 340.56,-782 340.56,-666.5 221.44,-666.5"/>
<text xml:space="preserve" text-anchor="middle" x="281" y="-764.7" font-family="Times New Roman,serif" font-size="14.00">TEST_APP</text>
</g>
<g id="clust5" class="cluster">
<title>cluster_legend</title>
<polygon fill="lightyellow" stroke="black" points="628.62,-518.12 628.62,-714.38 849.38,-714.38 849.38,-518.12 628.62,-518.12"/>
<text xml:space="preserve" text-anchor="middle" x="739" y="-700.88" font-family="Times New Roman,serif" font-size="10.00">Legend</text>
</g>
<!-- SIMPLE_STB_make -->
<g id="node1" class="node">
<title>SIMPLE_STB_make</title>
<polygon fill="khaki" stroke="black" points="940.87,-420 886.87,-420 886.87,-384 940.87,-384 940.87,-420"/>
<text xml:space="preserve" text-anchor="middle" x="913.87" y="-398.13" font-family="Times New Roman,serif" font-size="10.00">make</text>
</g>
<!-- SIMPLE_STB_load -->
<g id="node2" class="node">
<title>SIMPLE_STB_load</title>
<polygon fill="palegreen" stroke="black" points="1018.88,-36 964.88,-36 964.88,0 1018.88,0 1018.88,-36"/>
<text xml:space="preserve" text-anchor="middle" x="991.88" y="-14.12" font-family="Times New Roman,serif" font-size="10.00">load</text>
</g>
<!-- SIMPLE_STB_load_rgb -->
<g id="node3" class="node">
<title>SIMPLE_STB_load_rgb</title>
<polygon fill="palegreen" stroke="black" points="940.87,-36 886.87,-36 886.87,0 940.87,0 940.87,-36"/>
<text xml:space="preserve" text-anchor="middle" x="913.87" y="-14.12" font-family="Times New Roman,serif" font-size="10.00">load_rgb</text>
</g>
<!-- SIMPLE_STB_load_rgba -->
<g id="node4" class="node">
<title>SIMPLE_STB_load_rgba</title>
<polygon fill="palegreen" stroke="black" points="865.5,-36 808.25,-36 808.25,0 865.5,0 865.5,-36"/>
<text xml:space="preserve" text-anchor="middle" x="836.88" y="-14.12" font-family="Times New Roman,serif" font-size="10.00">load_rgba</text>
</g>
<!-- SIMPLE_STB_load_channels -->
<g id="node5" class="node">
<title>SIMPLE_STB_load_channels</title>
<polygon fill="palegreen" stroke="black" points="739.5,-84 664.25,-84 664.25,-48 739.5,-48 739.5,-84"/>
<text xml:space="preserve" text-anchor="middle" x="701.88" y="-62.12" font-family="Times New Roman,serif" font-size="10.00">load_channels</text>
</g>
<!-- SIMPLE_STB_create_image -->
<g id="node6" class="node">
<title>SIMPLE_STB_create_image</title>
<polygon fill="palegreen" stroke="black" points="1034.88,-384 964.87,-384 964.87,-348 1034.88,-348 1034.88,-384"/>
<text xml:space="preserve" text-anchor="middle" x="999.87" y="-362.13" font-family="Times New Roman,serif" font-size="10.00">create_image</text>
</g>
<!-- SIMPLE_STB_create_rgb -->
<g id="node7" class="node">
<title>SIMPLE_STB_create_rgb</title>
<polygon fill="palegreen" stroke="black" points="717.25,-300 658.5,-300 658.5,-264 717.25,-264 717.25,-300"/>
<text xml:space="preserve" text-anchor="middle" x="687.88" y="-278.12" font-family="Times New Roman,serif" font-size="10.00">create_rgb</text>
</g>
<!-- SIMPLE_STB_create_rgba -->
<g id="node8" class="node">
<title>SIMPLE_STB_create_rgba</title>
<polygon fill="palegreen" stroke="black" points="703.5,-180 640.25,-180 640.25,-144 703.5,-144 703.5,-180"/>
<text xml:space="preserve" text-anchor="middle" x="671.88" y="-158.12" font-family="Times New Roman,serif" font-size="10.00">create_rgba</text>
</g>
<!-- SIMPLE_STB_image_info -->
<g id="node9" class="node">
<title>SIMPLE_STB_image_info</title>
<polygon fill="khaki" stroke="black" points="1057.12,-156 994.62,-156 994.62,-120 1057.12,-120 1057.12,-156"/>
<text xml:space="preserve" text-anchor="middle" x="1025.88" y="-134.12" font-family="Times New Roman,serif" font-size="10.00">image_info</text>
</g>
<!-- SIMPLE_STB_is_valid_image -->
<g id="node10" class="node">
<title>SIMPLE_STB_is_valid_image</title>
<polygon fill="khaki" stroke="black" points="881.38,-360 802.38,-360 802.38,-324 881.38,-324 881.38,-360"/>
<text xml:space="preserve" text-anchor="middle" x="841.88" y="-338.12" font-family="Times New Roman,serif" font-size="10.00">is_valid_image</text>
</g>
<!-- SIMPLE_STB_Channels_auto -->
<g id="node11" class="node">
<title>SIMPLE_STB_Channels_auto</title>
<polygon fill="lightgray" stroke="black" points="1005.62,-96 928.12,-96 928.12,-60 1005.62,-60 1005.62,-96"/>
<text xml:space="preserve" text-anchor="middle" x="966.88" y="-74.12" font-family="Times New Roman,serif" font-size="10.00">Channels_auto</text>
</g>
<!-- SIMPLE_STB_Channels_grey -->
<g id="node12" class="node">
<title>SIMPLE_STB_Channels_grey</title>
<polygon fill="lightgray" stroke="black" points="903.62,-96 826.12,-96 826.12,-60 903.62,-60 903.62,-96"/>
<text xml:space="preserve" text-anchor="middle" x="864.88" y="-74.12" font-family="Times New Roman,serif" font-size="10.00">Channels_grey</text>
</g>
<!-- SIMPLE_STB_Channels_grey_alpha -->
<g id="node13" class="node">
<title>SIMPLE_STB_Channels_grey_alpha</title>
<polygon fill="lightgray" stroke="black" points="859.5,-204 754.25,-204 754.25,-168 859.5,-168 859.5,-204"/>
<text xml:space="preserve" text-anchor="middle" x="806.88" y="-182.12" font-family="Times New Roman,serif" font-size="10.00">Channels_grey_alpha</text>
</g>
<!-- SIMPLE_STB_Channels_rgb -->
<g id="node14" class="node">
<title>SIMPLE_STB_Channels_rgb</title>
<polygon fill="lightgray" stroke="black" points="1031.38,-216 958.38,-216 958.38,-180 1031.38,-180 1031.38,-216"/>
<text xml:space="preserve" text-anchor="middle" x="994.88" y="-194.12" font-family="Times New Roman,serif" font-size="10.00">Channels_rgb</text>
</g>
<!-- SIMPLE_STB_Channels_rgba -->
<g id="node15" class="node">
<title>SIMPLE_STB_Channels_rgba</title>
<polygon fill="lightgray" stroke="black" points="801.62,-144 724.12,-144 724.12,-108 801.62,-108 801.62,-144"/>
<text xml:space="preserve" text-anchor="middle" x="762.88" y="-122.12" font-family="Times New Roman,serif" font-size="10.00">Channels_rgba</text>
</g>
<!-- SIMPLE_STB_supported_formats -->
<g id="node16" class="node">
<title>SIMPLE_STB_supported_formats</title>
<polygon fill="lightcoral" stroke="black" points="971.75,-156 880,-156 880,-120 971.75,-120 971.75,-156"/>
<text xml:space="preserve" text-anchor="middle" x="925.88" y="-134.12" font-family="Times New Roman,serif" font-size="10.00">supported_formats</text>
</g>
<!-- SIMPLE_STB_write_formats -->
<g id="node17" class="node">
<title>SIMPLE_STB_write_formats</title>
<polygon fill="lightcoral" stroke="black" points="731,-240 658.75,-240 658.75,-204 731,-204 731,-240"/>
<text xml:space="preserve" text-anchor="middle" x="694.88" y="-218.12" font-family="Times New Roman,serif" font-size="10.00">write_formats</text>
</g>
<!-- SIMPLE_STB_last_error -->
<g id="node18" class="node">
<title>SIMPLE_STB_last_error</title>
<polygon fill="lightgray" stroke="black" points="863,-420 808.75,-420 808.75,-384 863,-384 863,-420"/>
<text xml:space="preserve" text-anchor="middle" x="835.88" y="-398.13" font-family="Times New Roman,serif" font-size="10.00">last_error</text>
</g>
<!-- SIMPLE_STB_has_error -->
<g id="node19" class="node">
<title>SIMPLE_STB_has_error</title>
<polygon fill="lightcoral" stroke="black" points="682.88,-408 628.88,-408 628.88,-372 682.88,-372 682.88,-408"/>
<text xml:space="preserve" text-anchor="middle" x="655.88" y="-386.12" font-family="Times New Roman,serif" font-size="10.00">has_error</text>
</g>
<!-- SIMPLE_STB_c_load_image -->
<g id="node20" class="node">
<title>SIMPLE_STB_c_load_image</title>
<polygon fill="lightcoral" stroke="black" points="779.75,-360 706,-360 706,-324 779.75,-324 779.75,-360"/>
<text xml:space="preserve" text-anchor="middle" x="742.88" y="-338.12" font-family="Times New Roman,serif" font-size="10.00">c_load_image</text>
</g>
<!-- SIMPLE_STB_c_create_image -->
<g id="node21" class="node">
<title>SIMPLE_STB_c_create_image</title>
<polygon fill="lightcoral" stroke="black" points="983.75,-324 904,-324 904,-288 983.75,-288 983.75,-324"/>
<text xml:space="preserve" text-anchor="middle" x="943.88" y="-302.12" font-family="Times New Roman,serif" font-size="10.00">c_create_image</text>
</g>
<!-- SIMPLE_STB_c_get_image_info -->
<g id="node22" class="node">
<title>SIMPLE_STB_c_get_image_info</title>
<polygon fill="lightcoral" stroke="black" points="935,-264 844.75,-264 844.75,-228 935,-228 935,-264"/>
<text xml:space="preserve" text-anchor="middle" x="889.88" y="-242.12" font-family="Times New Roman,serif" font-size="10.00">c_get_image_info</text>
</g>
<!-- SIMPLE_STB_c_is_valid_image -->
<g id="node23" class="node">
<title>SIMPLE_STB_c_is_valid_image</title>
<polygon fill="lightcoral" stroke="black" points="825.25,-300 736.5,-300 736.5,-264 825.25,-264 825.25,-300"/>
<text xml:space="preserve" text-anchor="middle" x="780.88" y="-278.12" font-family="Times New Roman,serif" font-size="10.00">c_is_valid_image</text>
</g>
<!-- STB_IMAGE_make_from_pointer -->
<g id="node24" class="node">
<title>STB_IMAGE_make_from_pointer</title>
<polygon fill="lightcoral" stroke="black" points="288.12,-295 191.87,-295 191.87,-259 288.12,-259 288.12,-295"/>
<text xml:space="preserve" text-anchor="middle" x="240" y="-273.12" font-family="Times New Roman,serif" font-size="10.00">make_from_pointer</text>
</g>
<!-- STB_IMAGE_handle -->
<g id="node25" class="node">
<title>STB_IMAGE_handle</title>
<polygon fill="lightgray" stroke="black" points="546,-433 492,-433 492,-397 546,-397 546,-433"/>
<text xml:space="preserve" text-anchor="middle" x="519" y="-411.12" font-family="Times New Roman,serif" font-size="10.00">handle</text>
</g>
<!-- STB_IMAGE_width -->
<g id="node26" class="node">
<title>STB_IMAGE_width</title>
<polygon fill="palegreen" stroke="black" points="534,-73 480,-73 480,-37 534,-37 534,-73"/>
<text xml:space="preserve" text-anchor="middle" x="507" y="-51.13" font-family="Times New Roman,serif" font-size="10.00">width</text>
</g>
<!-- STB_IMAGE_height -->
<g id="node27" class="node">
<title>STB_IMAGE_height</title>
<polygon fill="palegreen" stroke="black" points="456,-73 402,-73 402,-37 456,-37 456,-73"/>
<text xml:space="preserve" text-anchor="middle" x="429" y="-51.13" font-family="Times New Roman,serif" font-size="10.00">height</text>
</g>
<!-- STB_IMAGE_channels -->
<g id="node28" class="node">
<title>STB_IMAGE_channels</title>
<polygon fill="palegreen" stroke="black" points="516,-535 462,-535 462,-499 516,-499 516,-535"/>
<text xml:space="preserve" text-anchor="middle" x="489" y="-513.12" font-family="Times New Roman,serif" font-size="10.00">channels</text>
</g>
<!-- STB_IMAGE_stride -->
<g id="node29" class="node">
<title>STB_IMAGE_stride</title>
<polygon fill="khaki" stroke="black" points="96,-115 42,-115 42,-79 96,-79 96,-115"/>
<text xml:space="preserve" text-anchor="middle" x="69" y="-93.12" font-family="Times New Roman,serif" font-size="10.00">stride</text>
</g>
<!-- STB_IMAGE_data -->
<g id="node30" class="node">
<title>STB_IMAGE_data</title>
<polygon fill="khaki" stroke="black" points="84,-325 30,-325 30,-289 84,-289 84,-325"/>
<text xml:space="preserve" text-anchor="middle" x="57" y="-303.12" font-family="Times New Roman,serif" font-size="10.00">data</text>
</g>
<!-- STB_IMAGE_is_rgb -->
<g id="node31" class="node">
<title>STB_IMAGE_is_rgb</title>
<polygon fill="lightcoral" stroke="black" points="438,-565 384,-565 384,-529 438,-529 438,-565"/>
<text xml:space="preserve" text-anchor="middle" x="411" y="-543.13" font-family="Times New Roman,serif" font-size="10.00">is_rgb</text>
</g>
<!-- STB_IMAGE_is_rgba -->
<g id="node32" class="node">
<title>STB_IMAGE_is_rgba</title>
<polygon fill="lightcoral" stroke="black" points="54,-565 0,-565 0,-529 54,-529 54,-565"/>
<text xml:space="preserve" text-anchor="middle" x="27" y="-543.13" font-family="Times New Roman,serif" font-size="10.00">is_rgba</text>
</g>
<!-- STB_IMAGE_is_valid -->
<g id="node33" class="node">
<title>STB_IMAGE_is_valid</title>
<polygon fill="lightcoral" stroke="black" points="552,-253 498,-253 498,-217 552,-217 552,-253"/>
<text xml:space="preserve" text-anchor="middle" x="525" y="-231.12" font-family="Times New Roman,serif" font-size="10.00">is_valid</text>
</g>
<!-- STB_IMAGE_error_message -->
<g id="node34" class="node">
<title>STB_IMAGE_error_message</title>
<polygon fill="lightcoral" stroke="black" points="318.87,-445 245.12,-445 245.12,-409 318.87,-409 318.87,-445"/>
<text xml:space="preserve" text-anchor="middle" x="282" y="-423.13" font-family="Times New Roman,serif" font-size="10.00">error_message</text>
</g>
<!-- STB_IMAGE_pixel -->
<g id="node35" class="node">
<title>STB_IMAGE_pixel</title>
<polygon fill="khaki" stroke="black" points="282,-565 228,-565 228,-529 282,-529 282,-565"/>
<text xml:space="preserve" text-anchor="middle" x="255" y="-543.13" font-family="Times New Roman,serif" font-size="10.00">pixel</text>
</g>
<!-- STB_IMAGE_set_pixel -->
<g id="node36" class="node">
<title>STB_IMAGE_set_pixel</title>
<polygon fill="khaki" stroke="black" points="360,-565 306,-565 306,-529 360,-529 360,-565"/>
<text xml:space="preserve" text-anchor="middle" x="333" y="-543.13" font-family="Times New Roman,serif" font-size="10.00">set_pixel</text>
</g>
<!-- STB_IMAGE_set_pixel_hex -->
<g id="node37" class="node">
<title>STB_IMAGE_set_pixel_hex</title>
<polygon fill="khaki" stroke="black" points="420.88,-193 347.12,-193 347.12,-157 420.88,-157 420.88,-193"/>
<text xml:space="preserve" text-anchor="middle" x="384" y="-171.13" font-family="Times New Roman,serif" font-size="10.00">set_pixel_hex</text>
</g>
<!-- STB_IMAGE_fill -->
<g id="node38" class="node">
<title>STB_IMAGE_fill</title>
<polygon fill="khaki" stroke="black" points="132,-559 78,-559 78,-523 132,-523 132,-559"/>
<text xml:space="preserve" text-anchor="middle" x="105" y="-537.12" font-family="Times New Roman,serif" font-size="10.00">fill</text>
</g>
<!-- STB_IMAGE_fill_hex -->
<g id="node39" class="node">
<title>STB_IMAGE_fill_hex</title>
<polygon fill="khaki" stroke="black" points="66,-439 12,-439 12,-403 66,-403 66,-439"/>
<text xml:space="preserve" text-anchor="middle" x="39" y="-417.13" font-family="Times New Roman,serif" font-size="10.00">fill_hex</text>
</g>
<!-- STB_IMAGE_fill_rect -->
<g id="node40" class="node">
<title>STB_IMAGE_fill_rect</title>
<polygon fill="khaki" stroke="black" points="534,-313 480,-313 480,-277 534,-277 534,-313"/>
<text xml:space="preserve" text-anchor="middle" x="507" y="-291.12" font-family="Times New Roman,serif" font-size="10.00">fill_rect</text>
</g>
<!-- STB_IMAGE_fill_rect_hex -->
<g id="node41" class="node">
<title>STB_IMAGE_fill_rect_hex</title>
<polygon fill="khaki" stroke="black" points="134.25,-499 65.75,-499 65.75,-463 134.25,-463 134.25,-499"/>
<text xml:space="preserve" text-anchor="middle" x="100" y="-477.13" font-family="Times New Roman,serif" font-size="10.00">fill_rect_hex</text>
</g>
<!-- STB_IMAGE_duplicate -->
<g id="node42" class="node">
<title>STB_IMAGE_duplicate</title>
<polygon fill="palegreen" stroke="black" points="78.12,-205 23.87,-205 23.87,-169 78.12,-169 78.12,-205"/>
<text xml:space="preserve" text-anchor="middle" x="51" y="-183.12" font-family="Times New Roman,serif" font-size="10.00">duplicate</text>
</g>
<!-- STB_IMAGE_flip_vertical -->
<g id="node43" class="node">
<title>STB_IMAGE_flip_vertical</title>
<polygon fill="khaki" stroke="black" points="138.12,-265 71.87,-265 71.87,-229 138.12,-229 138.12,-265"/>
<text xml:space="preserve" text-anchor="middle" x="105" y="-243.13" font-family="Times New Roman,serif" font-size="10.00">flip_vertical</text>
</g>
<!-- STB_IMAGE_flip_horizontal -->
<g id="node44" class="node">
<title>STB_IMAGE_flip_horizontal</title>
<polygon fill="khaki" stroke="black" points="256.75,-385 179.25,-385 179.25,-349 256.75,-349 256.75,-385"/>
<text xml:space="preserve" text-anchor="middle" x="218" y="-363.13" font-family="Times New Roman,serif" font-size="10.00">flip_horizontal</text>
</g>
<!-- STB_IMAGE_write_png -->
<g id="node45" class="node">
<title>STB_IMAGE_write_png</title>
<polygon fill="khaki" stroke="black" points="178,-115 120,-115 120,-79 178,-79 178,-115"/>
<text xml:space="preserve" text-anchor="middle" x="149" y="-93.12" font-family="Times New Roman,serif" font-size="10.00">write_png</text>
</g>
<!-- STB_IMAGE_write_bmp -->
<g id="node46" class="node">
<title>STB_IMAGE_write_bmp</title>
<polygon fill="khaki" stroke="black" points="294.12,-505 233.87,-505 233.87,-469 294.12,-469 294.12,-505"/>
<text xml:space="preserve" text-anchor="middle" x="264" y="-483.12" font-family="Times New Roman,serif" font-size="10.00">write_bmp</text>
</g>
<!-- STB_IMAGE_write_tga -->
<g id="node47" class="node">
<title>STB_IMAGE_write_tga</title>
<polygon fill="khaki" stroke="black" points="210.5,-505 155.5,-505 155.5,-469 210.5,-469 210.5,-505"/>
<text xml:space="preserve" text-anchor="middle" x="183" y="-483.12" font-family="Times New Roman,serif" font-size="10.00">write_tga</text>
</g>
<!-- STB_IMAGE_write_jpg -->
<g id="node48" class="node">
<title>STB_IMAGE_write_jpg</title>
<polygon fill="khaki" stroke="black" points="492.88,-373 437.12,-373 437.12,-337 492.88,-337 492.88,-373"/>
<text xml:space="preserve" text-anchor="middle" x="465" y="-351.13" font-family="Times New Roman,serif" font-size="10.00">write_jpg</text>
</g>
<!-- STB_IMAGE_destroy -->
<g id="node49" class="node">
<title>STB_IMAGE_destroy</title>
<polygon fill="khaki" stroke="black" points="498,-193 444,-193 444,-157 498,-157 498,-193"/>
<text xml:space="preserve" text-anchor="middle" x="471" y="-171.13" font-family="Times New Roman,serif" font-size="10.00">destroy</text>
</g>
<!-- STB_IMAGE_c_get_width -->
<g id="node50" class="node">
<title>STB_IMAGE_c_get_width</title>
<polygon fill="lightcoral" stroke="black" points="222.87,-445 155.12,-445 155.12,-409 222.87,-409 222.87,-445"/>
<text xml:space="preserve" text-anchor="middle" x="189" y="-423.13" font-family="Times New Roman,serif" font-size="10.00">c_get_width</text>
</g>
<!-- STB_IMAGE_c_get_height -->
<g id="node51" class="node">
<title>STB_IMAGE_c_get_height</title>
<polygon fill="lightcoral" stroke="black" points="316,-133 246,-133 246,-97 316,-97 316,-133"/>
<text xml:space="preserve" text-anchor="middle" x="281" y="-111.12" font-family="Times New Roman,serif" font-size="10.00">c_get_height</text>
</g>
<!-- STB_IMAGE_c_get_channels -->
<g id="node52" class="node">
<title>STB_IMAGE_c_get_channels</title>
<polygon fill="lightcoral" stroke="black" points="390.87,-253 311.12,-253 311.12,-217 390.87,-217 390.87,-253"/>
<text xml:space="preserve" text-anchor="middle" x="351" y="-231.12" font-family="Times New Roman,serif" font-size="10.00">c_get_channels</text>
</g>
<!-- STB_IMAGE_c_get_stride -->
<g id="node53" class="node">
<title>STB_IMAGE_c_get_stride</title>
<polygon fill="lightcoral" stroke="black" points="156.12,-385 89.87,-385 89.87,-349 156.12,-349 156.12,-385"/>
<text xml:space="preserve" text-anchor="middle" x="123" y="-363.13" font-family="Times New Roman,serif" font-size="10.00">c_get_stride</text>
</g>
<!-- STB_IMAGE_c_get_data -->
<g id="node54" class="node">
<title>STB_IMAGE_c_get_data</title>
<polygon fill="lightcoral" stroke="black" points="378.5,-505 317.5,-505 317.5,-469 378.5,-469 378.5,-505"/>
<text xml:space="preserve" text-anchor="middle" x="348" y="-483.12" font-family="Times New Roman,serif" font-size="10.00">c_get_data</text>
</g>
<!-- STB_IMAGE_c_get_error -->
<g id="node55" class="node">
<title>STB_IMAGE_c_get_error</title>
<polygon fill="lightcoral" stroke="black" points="482.25,-133 419.75,-133 419.75,-97 482.25,-97 482.25,-133"/>
<text xml:space="preserve" text-anchor="middle" x="451" y="-111.12" font-family="Times New Roman,serif" font-size="10.00">c_get_error</text>
</g>
<!-- STB_IMAGE_c_get_pixel -->
<g id="node56" class="node">
<title>STB_IMAGE_c_get_pixel</title>
<polygon fill="lightcoral" stroke="black" points="478.37,-253 413.62,-253 413.62,-217 478.37,-217 478.37,-253"/>
<text xml:space="preserve" text-anchor="middle" x="446" y="-231.12" font-family="Times New Roman,serif" font-size="10.00">c_get_pixel</text>
</g>
<!-- STB_IMAGE_c_set_pixel -->
<g id="node57" class="node">
<title>STB_IMAGE_c_set_pixel</title>
<polygon fill="lightcoral" stroke="black" points="398.62,-133 335.37,-133 335.37,-97 398.62,-97 398.62,-133"/>
<text xml:space="preserve" text-anchor="middle" x="367" y="-111.12" font-family="Times New Roman,serif" font-size="10.00">c_set_pixel</text>
</g>
<!-- STB_IMAGE_c_fill -->
<g id="node58" class="node">
<title>STB_IMAGE_c_fill</title>
<polygon fill="lightcoral" stroke="black" points="300,-73 246,-73 246,-37 300,-37 300,-73"/>
<text xml:space="preserve" text-anchor="middle" x="273" y="-51.13" font-family="Times New Roman,serif" font-size="10.00">c_fill</text>
</g>
<!-- STB_IMAGE_c_fill_rect -->
<g id="node59" class="node">
<title>STB_IMAGE_c_fill_rect</title>
<polygon fill="lightcoral" stroke="black" points="382,-73 324,-73 324,-37 382,-37 382,-73"/>
<text xml:space="preserve" text-anchor="middle" x="353" y="-51.13" font-family="Times New Roman,serif" font-size="10.00">c_fill_rect</text>
</g>
<!-- STB_IMAGE_c_copy_image -->
<g id="node60" class="node">
<title>STB_IMAGE_c_copy_image</title>
<polygon fill="lightcoral" stroke="black" points="418,-415 342,-415 342,-379 418,-379 418,-415"/>
<text xml:space="preserve" text-anchor="middle" x="380" y="-393.12" font-family="Times New Roman,serif" font-size="10.00">c_copy_image</text>
</g>
<!-- STB_IMAGE_c_flip_vertical -->
<g id="node61" class="node">
<title>STB_IMAGE_c_flip_vertical</title>
<polygon fill="lightcoral" stroke="black" points="328,-193 252,-193 252,-157 328,-157 328,-193"/>
<text xml:space="preserve" text-anchor="middle" x="290" y="-171.13" font-family="Times New Roman,serif" font-size="10.00">c_flip_vertical</text>
</g>
<!-- STB_IMAGE_c_flip_horizontal -->
<g id="node62" class="node">
<title>STB_IMAGE_c_flip_horizontal</title>
<polygon fill="lightcoral" stroke="black" points="368.62,-355 281.37,-355 281.37,-319 368.62,-319 368.62,-355"/>
<text xml:space="preserve" text-anchor="middle" x="325" y="-333.13" font-family="Times New Roman,serif" font-size="10.00">c_flip_horizontal</text>
</g>
<!-- STB_IMAGE_c_write_png -->
<g id="node63" class="node">
<title>STB_IMAGE_c_write_png</title>
<polygon fill="lightcoral" stroke="black" points="468.87,-475 401.12,-475 401.12,-439 468.87,-439 468.87,-475"/>
<text xml:space="preserve" text-anchor="middle" x="435" y="-453.13" font-family="Times New Roman,serif" font-size="10.00">c_write_png</text>
</g>
<!-- STB_IMAGE_c_write_bmp -->
<g id="node64" class="node">
<title>STB_IMAGE_c_write_bmp</title>
<polygon fill="lightcoral" stroke="black" points="172,-175 102,-175 102,-139 172,-139 172,-175"/>
<text xml:space="preserve" text-anchor="middle" x="137" y="-153.13" font-family="Times New Roman,serif" font-size="10.00">c_write_bmp</text>
</g>
<!-- STB_IMAGE_c_write_tga -->
<g id="node65" class="node">
<title>STB_IMAGE_c_write_tga</title>
<polygon fill="lightcoral" stroke="black" points="172.37,-325 107.62,-325 107.62,-289 172.37,-289 172.37,-325"/>
<text xml:space="preserve" text-anchor="middle" x="140" y="-303.12" font-family="Times New Roman,serif" font-size="10.00">c_write_tga</text>
</g>
<!-- STB_IMAGE_c_write_jpg -->
<g id="node66" class="node">
<title>STB_IMAGE_c_write_jpg</title>
<polygon fill="lightcoral" stroke="black" points="454.75,-313 389.25,-313 389.25,-277 454.75,-277 454.75,-313"/>
<text xml:space="preserve" text-anchor="middle" x="422" y="-291.12" font-family="Times New Roman,serif" font-size="10.00">c_write_jpg</text>
</g>
<!-- STB_IMAGE_c_free_image -->
<g id="node67" class="node">
<title>STB_IMAGE_c_free_image</title>
<polygon fill="lightcoral" stroke="black" points="232.37,-235 161.62,-235 161.62,-199 232.37,-199 232.37,-235"/>
<text xml:space="preserve" text-anchor="middle" x="197" y="-213.12" font-family="Times New Roman,serif" font-size="10.00">c_free_image</text>
</g>
<!-- LIB_TESTS_on_prepare -->
<g id="node68" class="node">
<title>LIB_TESTS_on_prepare</title>
<polygon fill="lightcoral" stroke="black" points="563.5,-762 501.75,-762 501.75,-726 563.5,-726 563.5,-762"/>
<text xml:space="preserve" text-anchor="middle" x="532.62" y="-740.13" font-family="Times New Roman,serif" font-size="10.00">on_prepare</text>
</g>
<!-- LIB_TESTS_stb -->
<g id="node69" class="node">
<title>LIB_TESTS_stb</title>
<polygon fill="lightgray" stroke="black" points="478.62,-768 424.62,-768 424.62,-732 478.62,-732 478.62,-768"/>
<text xml:space="preserve" text-anchor="middle" x="451.62" y="-746.13" font-family="Times New Roman,serif" font-size="10.00">stb</text>
</g>
<!-- LIB_TESTS_test_create_rgb_image -->
<g id="node70" class="node">
<title>LIB_TESTS_test_create_rgb_image</title>
<polygon fill="lightgray" stroke="black" points="514.75,-702 406.5,-702 406.5,-666 514.75,-666 514.75,-702"/>
<text xml:space="preserve" text-anchor="middle" x="460.62" y="-680.13" font-family="Times New Roman,serif" font-size="10.00">test_create_rgb_image</text>
</g>
<!-- TEST_APP_make -->
<g id="node71" class="node">
<title>TEST_APP_make</title>
<polygon fill="lightcoral" stroke="black" points="340.56,-757.5 286.56,-757.5 286.56,-721.5 340.56,-721.5 340.56,-757.5"/>
<text xml:space="preserve" text-anchor="middle" x="313.56" y="-735.62" font-family="Times New Roman,serif" font-size="10.00">make</text>
</g>
<!-- TEST_APP_run_suite -->
<g id="node72" class="node">
<title>TEST_APP_run_suite</title>
<polygon fill="lightcoral" stroke="black" points="275.69,-702.5 221.44,-702.5 221.44,-666.5 275.69,-666.5 275.69,-702.5"/>
<text xml:space="preserve" text-anchor="middle" x="248.56" y="-680.62" font-family="Times New Roman,serif" font-size="10.00">run_suite</text>
</g>
<!-- legend_full -->
<g id="node73" class="node">
<title>legend_full</title>
<polygon fill="palegreen" stroke="black" points="838.88,-623.13 724.62,-623.13 724.62,-582.13 838.88,-582.13 838.88,-623.13"/>
<text xml:space="preserve" text-anchor="middle" x="781.75" y="-605.83" font-family="Times New Roman,serif" font-size="14.00">Full Contract</text>
<text xml:space="preserve" text-anchor="middle" x="781.75" y="-589.33" font-family="Times New Roman,serif" font-size="14.00">(require + ensure)</text>
</g>
<!-- legend_partial -->
<g id="node74" class="node">
<title>legend_partial</title>
<polygon fill="khaki" stroke="black" points="849.38,-559.12 732.12,-559.12 732.12,-518.12 849.38,-518.12 849.38,-559.12"/>
<text xml:space="preserve" text-anchor="middle" x="790.75" y="-541.83" font-family="Times New Roman,serif" font-size="14.00">Partial Contract</text>
<text xml:space="preserve" text-anchor="middle" x="790.75" y="-525.33" font-family="Times New Roman,serif" font-size="14.00">(require or ensure)</text>
</g>
<!-- legend_none -->
<g id="node75" class="node">
<title>legend_none</title>
<polygon fill="lightcoral" stroke="black" points="815.12,-681.62 732.38,-681.62 732.38,-645.62 815.12,-645.62 815.12,-681.62"/>
<text xml:space="preserve" text-anchor="middle" x="773.75" y="-658.58" font-family="Times New Roman,serif" font-size="14.00">No Contract</text>
</g>
<!-- legend_attr -->
<g id="node76" class="node">
<title>legend_attr</title>
<polygon fill="lightgray" stroke="black" points="709.13,-695.13 644.38,-695.13 644.38,-654.13 709.13,-654.13 709.13,-695.13"/>
<text xml:space="preserve" text-anchor="middle" x="676.75" y="-677.83" font-family="Times New Roman,serif" font-size="14.00">Attribute</text>
<text xml:space="preserve" text-anchor="middle" x="676.75" y="-661.33" font-family="Times New Roman,serif" font-size="14.00">(n/a)</text>
</g>
<!-- legend_stats -->
<g id="node77" class="node">
<title>legend_stats</title>
<polygon fill="white" stroke="black" points="694.88,-633.13 628.62,-633.13 628.62,-526.13 700.88,-526.13 700.88,-627.13 694.88,-633.13"/>
<polyline fill="none" stroke="black" points="694.88,-633.13 694.88,-627.13"/>
<polyline fill="none" stroke="black" points="700.88,-627.13 694.88,-627.13"/>
<text xml:space="preserve" text-anchor="middle" x="664.75" y="-615.83" font-family="Times New Roman,serif" font-size="14.00">Statistics</text>
<text xml:space="preserve" text-anchor="middle" x="664.75" y="-599.33" font-family="Times New Roman,serif" font-size="14.00">Full: 11</text>
<text xml:space="preserve" text-anchor="middle" x="664.75" y="-582.83" font-family="Times New Roman,serif" font-size="14.00">Partial: 19</text>
<text xml:space="preserve" text-anchor="middle" x="664.75" y="-566.33" font-family="Times New Roman,serif" font-size="14.00">None: 33</text>
<text xml:space="preserve" text-anchor="middle" x="664.75" y="-549.83" font-family="Times New Roman,serif" font-size="14.00">Attr: 9</text>
<text xml:space="preserve" text-anchor="middle" x="664.75" y="-533.33" font-family="Times New Roman,serif" font-size="14.00">Total: 72</text>
</g>
</g>
</svg>
