<?xml version="1.0" encoding="UTF-8" standalone="no"?>
<!DOCTYPE svg PUBLIC "-//W3C//DTD SVG 1.1//EN"
 "http://www.w3.org/Graphics/SVG/1.1/DTD/svg11.dtd">
<!-- Generated by graphviz version 14.1.1 (20251213.1925)
 -->
<!-- Title: Dependencies Pages: 1 -->
<svg width="281pt" height="141pt"
 viewBox="0.00 0.00 281.00 141.00" xmlns="http://www.w3.org/2000/svg" xmlns:xlink="http://www.w3.org/1999/xlink">
<g id="graph0" class="graph" transform="scale(1 1) rotate(0) translate(4 136.5)">
<title>Dependencies</title>
<polygon fill="white" stroke="none" points="-4,4 -4,-136.5 277.25,-136.5 277.25,4 -4,4"/>
<text xml:space="preserve" text-anchor="middle" x="136.62" y="-7.2" font-family="Times New Roman,serif" font-size="14.00">simple_stb &#45; Dependencies</text>
<!-- simple_stb -->
<g id="node1" class="node">
<title>simple_stb</title>
<polygon fill="lightblue" stroke="black" points="75.25,-96.5 0,-96.5 0,-60.5 75.25,-60.5 75.25,-96.5"/>
<text xml:space="preserve" text-anchor="middle" x="37.62" y="-73.45" font-family="Times New Roman,serif" font-size="14.00">simple_stb</text>
</g>
<!-- base -->
<g id="node2" class="node">
<title>base</title>
<polygon fill="lightgray" stroke="black" points="273.25,-132.5 219.25,-132.5 219.25,-96.5 273.25,-96.5 273.25,-132.5"/>
<text xml:space="preserve" text-anchor="middle" x="246.25" y="-109.45" font-family="Times New Roman,serif" font-size="14.00">base</text>
</g>
<!-- simple_stb&#45;&gt;base -->
<g id="edge1" class="edge">
<title>simple_stb&#45;&gt;base</title>
<path fill="none" stroke="black" stroke-dasharray="5,2" d="M75.53,-84.5C137.88,-84.5 255.25,-84.5 255.25,-84.5 255.25,-84.5 255.25,-85.65 255.25,-85.65"/>
<polygon fill="black" stroke="black" points="251.75,-84.5 255.25,-94.5 258.75,-84.5 251.75,-84.5"/>
</g>
<!-- testing -->
<g id="node3" class="node">
<title>testing</title>
<polygon fill="lightgray" stroke="black" points="273.25,-60.5 219.25,-60.5 219.25,-24.5 273.25,-24.5 273.25,-60.5"/>
<text xml:space="preserve" text-anchor="middle" x="246.25" y="-37.45" font-family="Times New Roman,serif" font-size="14.00">testing</text>
</g>
<!-- simple_stb&#45;&gt;testing -->
<g id="edge2" class="edge">
<title>simple_stb&#45;&gt;testing</title>
<path fill="none" stroke="black" stroke-dasharray="5,2" d="M75.64,-72.5C133.56,-72.5 237.25,-72.5 237.25,-72.5 237.25,-72.5 237.25,-71.35 237.25,-71.35"/>
<polygon fill="black" stroke="black" points="240.75,-72.5 237.25,-62.5 233.75,-72.5 240.75,-72.5"/>
</g>
</g>
</svg>
